<svg width="452" height="126" viewBox="0 0 452 126" fill="none" xmlns="http://www.w3.org/2000/svg">
<path fill-rule="evenodd" clip-rule="evenodd" d="M31 95.5C31 92.4624 33.5553 90 36.7073 90H37.2927C40.4447 90 43 92.4624 43 95.5C43 98.5376 40.4447 101 37.2927 101H36.7073C33.5553 101 31 98.5376 31 95.5Z" fill="#F0A273"/>
<path fill-rule="evenodd" clip-rule="evenodd" d="M15.0384 23.6071C10.5755 30.9242 9.94027 40.1855 10.8958 47.1146C11.2957 50.0143 9.28861 52.6919 6.41287 53.0951C3.53713 53.4983 0.881722 51.4745 0.481841 48.5748C-0.674439 40.19 -0.0937594 28.1793 6.08247 18.0531C12.5037 7.52508 24.3803 5.18503e-07 43.7016 0C62.8834 -5.18503e-07 74.5991 9.46173 80.4105 21.5205C86.003 33.1248 86.0311 46.8706 82.9231 56.1938L82.8819 56.3175L82.8347 56.439C81.5494 59.746 79.5664 62.4807 77.5517 64.8116C76.1599 66.4217 74.5598 68.0453 73.0982 69.5283C72.5261 70.1088 71.9751 70.6678 71.4662 71.1961C67.6575 75.1496 65.0337 78.5441 64.3247 83.0341C64.3 89.1632 63.6845 99.1518 60.6191 107.86C57.5066 116.703 51.0936 126 38.7141 126C30.1111 126 23.9505 122.305 19.9181 117.76C16.0323 113.381 14.1235 108.241 13.5749 104.829C13.1101 101.939 15.0567 99.2166 17.9226 98.748C20.7886 98.2793 23.4887 100.242 23.9534 103.132C24.2135 104.749 25.3377 107.968 27.7537 110.691C30.0231 113.249 33.433 115.398 38.7141 115.398C44.3973 115.398 48.1616 111.556 50.7105 104.314C53.2401 97.1278 53.8114 88.3323 53.8114 82.6408V82.2798L53.8599 81.9221C54.9808 73.6621 59.8044 68.0856 63.9247 63.8088C64.6245 63.0823 65.2843 62.4132 65.9132 61.7754C67.2626 60.407 68.4698 59.1827 69.6256 57.8456C71.2056 56.0177 72.3248 54.3686 72.9996 52.6867C75.2411 45.8285 75.2419 35.0521 70.9538 26.1543C66.8577 17.6548 58.7582 10.6019 43.7016 10.6019C27.442 10.6019 19.2563 16.6918 15.0384 23.6071ZM42.3989 33.692C38.4766 33.4492 35.2477 34.8555 33.9534 36.0798C31.8358 38.0827 28.5089 37.9755 26.5225 35.8403C24.5362 33.705 24.6425 30.3504 26.7601 28.3474C30.5431 24.7691 36.7904 22.723 43.0431 23.11C49.576 23.5143 56.5671 26.5896 61.511 33.8283C64.2972 37.9078 65.0099 42.2426 63.9772 46.3879C63.0084 50.2762 60.6305 53.5093 58.1617 56.0298C53.2512 61.0433 46.4577 64.7414 43.0344 66.5437C41.7508 67.2195 40.4891 67.8997 39.4054 68.6422C39.0074 68.9149 38.6754 69.1681 38.4064 69.3989C38.4121 69.4038 38.418 69.4086 38.4239 69.4135C38.9812 69.8748 39.8476 70.4614 41.1472 71.1456C43.721 72.5007 44.718 75.7029 43.3742 78.2981C42.0304 80.8933 38.8547 81.8987 36.2809 80.5437C32.9294 78.7792 30.1234 76.6797 28.5828 73.9443C26.7579 70.7041 27.1374 67.3867 28.637 64.7808C29.9188 62.5534 31.9327 60.9444 33.4961 59.8732C35.1463 58.7425 36.913 57.8064 38.1681 57.1456C41.6195 55.3285 47.0521 52.2849 50.681 48.5799C52.4819 46.7412 53.452 45.1209 53.7798 43.8048C54.0437 42.7458 54.0015 41.5252 52.8516 39.8416C49.9234 35.5541 46.0409 33.9174 42.3989 33.692Z" fill="#F0A273"/>
<path fill-rule="evenodd" clip-rule="evenodd" d="M12.572 20.6451C7.25714 29.2805 6.64648 39.8198 7.70325 47.4138L7.43535 47.451C6.37342 39.8199 6.98268 29.2105 12.3416 20.5035C17.7068 11.7863 27.8181 5 45.7058 5C62.9339 5 72.9202 13.2402 77.9122 23.5051C82.8985 33.7585 82.8993 46.0251 80.1839 54.0971L80.1829 54.1003L80.1817 54.1034C79.1933 56.6236 77.6187 58.8329 75.7921 60.927C74.5127 62.3939 73.1047 63.8094 71.6856 65.2361C71.081 65.8439 70.4744 66.4538 69.8748 67.0705C65.8563 71.2041 62.133 75.6682 61.258 82.0362C61.2574 87.8979 60.6817 97.3699 57.8355 105.383C54.9883 113.399 49.849 120 40.7021 120C33.6947 120 28.8585 117.075 25.6747 113.519C22.4946 109.968 20.9631 105.788 20.5537 103.265L20.8207 103.222C21.2227 105.699 22.734 109.83 25.8762 113.339C29.0147 116.844 33.7802 119.73 40.7021 119.73C49.6768 119.73 54.7479 113.268 57.5806 105.293C60.4128 97.3189 60.9875 87.8778 60.9875 82.027V82.0178L60.9887 82.0087C61.8741 75.5438 65.6547 71.0236 69.6808 66.8822C70.2853 66.2604 70.8947 65.6477 71.5008 65.0384C72.9169 63.6147 74.3149 62.2093 75.5882 60.7495C77.4038 58.668 78.956 56.4864 79.9286 54.0079C82.6217 45.9988 82.6218 33.8077 77.6689 23.6233C72.7211 13.449 62.8277 5.27027 45.7058 5.27027C27.8969 5.27027 17.8805 12.02 12.572 20.6451ZM44.5804 28.3715C39.4381 28.1274 34.655 29.9028 32.1396 32.2607L31.9545 32.0636C34.5329 29.6467 39.3921 27.8546 44.5932 28.1015C49.8016 28.3487 55.3651 30.6411 59.3408 36.4098C61.3363 39.3052 61.7236 42.1065 61.0633 44.733C60.4047 47.3529 58.7071 49.7861 56.5567 51.9618C52.2566 56.3124 46.1062 59.6721 42.658 61.4711C41.3842 62.1357 39.8715 62.936 38.5074 63.8622C37.1411 64.7899 35.9379 65.8349 35.271 66.9834C34.6097 68.1222 34.4747 69.3621 35.2416 70.7116C36.0159 72.0739 37.7162 73.56 40.7647 75.1505L40.6395 75.3901C37.5753 73.7914 35.8192 72.2752 35.0064 70.845C34.1863 69.402 34.3336 68.0591 35.0371 66.8477C35.7349 65.646 36.979 64.5732 38.3554 63.6386C39.7341 62.7025 41.2597 61.8958 42.5328 61.2316C45.9817 59.4322 52.0972 56.0891 56.3643 51.7718C58.4975 49.6135 60.1588 47.2215 60.801 44.6671C61.4415 42.1193 61.0715 39.3975 59.1181 36.5631C55.1961 30.8724 49.7152 28.6152 44.5804 28.3715Z" fill="black" stroke="black"/>
<path d="M40 95.5C40 95.7761 39.5523 96 39 96C38.4477 96 38 95.7761 38 95.5C38 95.2239 38.4477 95 39 95C39.5523 95 40 95.2239 40 95.5Z" fill="black"/>
<path d="M92.84 107.61L92.49 102.36L112.37 99.56C112.23 97.3667 111.46 95.5467 110.06 94.1C108.66 92.6067 106.677 91.86 104.11 91.86C101.497 91.86 99.3267 92.7933 97.6 94.66C95.8733 96.5267 94.9867 99.1867 94.94 102.64L95.08 105.3C95.4533 108.613 96.6433 111.11 98.65 112.79C100.657 114.423 103.293 115.24 106.56 115.24C108.52 115.24 110.317 114.937 111.95 114.33C113.583 113.723 114.89 113.07 115.87 112.37C116.43 112.697 116.873 113.14 117.2 113.7C117.573 114.26 117.76 114.867 117.76 115.52C117.76 116.547 117.247 117.48 116.22 118.32C115.193 119.16 113.793 119.813 112.02 120.28C110.293 120.747 108.333 120.98 106.14 120.98C102.547 120.98 99.3967 120.327 96.69 119.02C93.9833 117.667 91.8833 115.683 90.39 113.07C88.8967 110.41 88.15 107.167 88.15 103.34C88.15 100.587 88.5467 98.16 89.34 96.06C90.18 93.9133 91.3233 92.1167 92.77 90.67C94.2167 89.2233 95.92 88.1267 97.88 87.38C99.84 86.6333 101.94 86.26 104.18 86.26C107.12 86.26 109.71 86.89 111.95 88.15C114.237 89.3633 116.01 91.0667 117.27 93.26C118.53 95.4533 119.16 97.95 119.16 100.75C119.16 101.917 118.88 102.78 118.32 103.34C117.76 103.853 116.967 104.18 115.94 104.32L92.84 107.61ZM151.308 110.97C151.308 114.097 150.141 116.547 147.808 118.32C145.521 120.093 142.184 120.98 137.798 120.98C134.158 120.98 131.171 120.42 128.838 119.3C126.504 118.18 125.338 116.827 125.338 115.24C125.338 114.54 125.501 113.91 125.828 113.35C126.201 112.743 126.691 112.253 127.298 111.88C128.604 112.72 130.098 113.49 131.778 114.19C133.504 114.89 135.441 115.24 137.588 115.24C141.974 115.24 144.168 113.84 144.168 111.04C144.168 109.827 143.794 108.87 143.048 108.17C142.301 107.423 141.181 106.863 139.688 106.49L134.788 105.23C131.661 104.53 129.351 103.41 127.858 101.87C126.364 100.33 125.618 98.3467 125.618 95.92C125.618 93.2133 126.714 90.9267 128.908 89.06C131.148 87.1933 134.391 86.26 138.638 86.26C140.831 86.26 142.768 86.4933 144.448 86.96C146.174 87.38 147.504 87.9867 148.438 88.78C149.418 89.5733 149.908 90.46 149.908 91.44C149.908 92.14 149.744 92.77 149.418 93.33C149.091 93.89 148.671 94.31 148.158 94.59C147.598 94.2633 146.851 93.89 145.918 93.47C144.984 93.05 143.911 92.7 142.698 92.42C141.531 92.14 140.318 92 139.058 92C137.098 92 135.534 92.35 134.368 93.05C133.248 93.7033 132.688 94.66 132.688 95.92C132.688 96.8067 133.014 97.6 133.668 98.3C134.321 98.9533 135.418 99.4433 136.958 99.77L141.088 100.82C144.588 101.613 147.154 102.85 148.788 104.53C150.468 106.163 151.308 108.31 151.308 110.97ZM175.45 92.14C172.51 92.14 170.037 93.1433 168.03 95.15C166.023 97.11 165.02 99.9567 165.02 103.69C165.02 107.377 165.977 110.2 167.89 112.16C169.85 114.12 172.37 115.1 175.45 115.1C177.27 115.1 178.81 114.867 180.07 114.4C181.33 113.887 182.427 113.327 183.36 112.72C183.967 113.093 184.457 113.537 184.83 114.05C185.203 114.563 185.39 115.17 185.39 115.87C185.39 117.317 184.433 118.53 182.52 119.51C180.607 120.443 178.133 120.91 175.1 120.91C171.693 120.91 168.683 120.28 166.07 119.02C163.457 117.76 161.403 115.847 159.91 113.28C158.463 110.713 157.74 107.517 157.74 103.69C157.74 99.8167 158.51 96.5967 160.05 94.03C161.59 91.4633 163.667 89.5267 166.28 88.22C168.893 86.9133 171.763 86.26 174.89 86.26C177.877 86.26 180.303 86.7967 182.17 87.87C184.083 88.8967 185.04 90.11 185.04 91.51C185.04 92.1633 184.853 92.7467 184.48 93.26C184.153 93.7733 183.733 94.1933 183.22 94.52C182.24 93.8667 181.143 93.3067 179.93 92.84C178.717 92.3733 177.223 92.14 175.45 92.14ZM193.121 107.75V101.8H200.331V107.54C200.331 110.247 201.031 112.207 202.431 113.42C203.878 114.587 205.861 115.17 208.381 115.17C210.061 115.17 211.484 115.007 212.651 114.68C213.818 114.307 214.704 113.933 215.311 113.56V101.8H222.521V113.84C222.521 114.867 222.358 115.707 222.031 116.36C221.704 117.013 221.051 117.643 220.071 118.25C218.904 118.95 217.318 119.58 215.311 120.14C213.304 120.7 210.971 120.98 208.311 120.98C205.184 120.98 202.478 120.513 200.191 119.58C197.904 118.647 196.154 117.2 194.941 115.24C193.728 113.28 193.121 110.783 193.121 107.75ZM222.521 105.3H215.311V87.38C215.638 87.2867 216.104 87.17 216.711 87.03C217.318 86.89 217.948 86.82 218.601 86.82C219.954 86.82 220.934 87.0767 221.541 87.59C222.194 88.0567 222.521 88.92 222.521 90.18V105.3ZM200.331 105.3H193.121V87.38C193.448 87.2867 193.914 87.17 194.521 87.03C195.128 86.89 195.781 86.82 196.481 86.82C197.788 86.82 198.744 87.0767 199.351 87.59C200.004 88.0567 200.331 88.92 200.331 90.18V105.3ZM248.184 92.14C245.244 92.14 242.771 93.1433 240.764 95.15C238.758 97.11 237.754 99.9567 237.754 103.69C237.754 107.377 238.711 110.2 240.624 112.16C242.584 114.12 245.104 115.1 248.184 115.1C250.004 115.1 251.544 114.867 252.804 114.4C254.064 113.887 255.161 113.327 256.094 112.72C256.701 113.093 257.191 113.537 257.564 114.05C257.938 114.563 258.124 115.17 258.124 115.87C258.124 117.317 257.168 118.53 255.254 119.51C253.341 120.443 250.868 120.91 247.834 120.91C244.428 120.91 241.418 120.28 238.804 119.02C236.191 117.76 234.138 115.847 232.644 113.28C231.198 110.713 230.474 107.517 230.474 103.69C230.474 99.8167 231.244 96.5967 232.784 94.03C234.324 91.4633 236.401 89.5267 239.014 88.22C241.628 86.9133 244.498 86.26 247.624 86.26C250.611 86.26 253.038 86.7967 254.904 87.87C256.818 88.8967 257.774 90.11 257.774 91.51C257.774 92.1633 257.588 92.7467 257.214 93.26C256.888 93.7733 256.468 94.1933 255.954 94.52C254.974 93.8667 253.878 93.3067 252.664 92.84C251.451 92.3733 249.958 92.14 248.184 92.14ZM295.325 105.93H288.185V99.56C288.185 96.9933 287.462 95.1033 286.015 93.89C284.615 92.6767 282.819 92.07 280.625 92.07C278.899 92.07 277.312 92.3967 275.865 93.05C274.419 93.7033 273.205 94.4733 272.225 95.36L271.455 89.55C272.529 88.8033 273.952 88.08 275.725 87.38C277.499 86.6333 279.505 86.26 281.745 86.26C285.805 86.26 289.072 87.3567 291.545 89.55C294.065 91.6967 295.325 94.94 295.325 99.28V105.93ZM265.995 101.52H273.205V119.86C272.879 119.953 272.412 120.07 271.805 120.21C271.245 120.35 270.615 120.42 269.915 120.42C268.609 120.42 267.629 120.163 266.975 119.65C266.322 119.137 265.995 118.297 265.995 117.13V101.52ZM288.185 101.59H295.325V119.86C295.045 119.953 294.602 120.07 293.995 120.21C293.389 120.35 292.735 120.42 292.035 120.42C290.729 120.42 289.749 120.163 289.095 119.65C288.489 119.137 288.185 118.297 288.185 117.13V101.59ZM273.205 105.09H265.995V74.57C266.322 74.4767 266.789 74.36 267.395 74.22C268.002 74.08 268.655 74.01 269.355 74.01C270.662 74.01 271.619 74.2667 272.225 74.78C272.879 75.2467 273.205 76.0867 273.205 77.3V105.09ZM317.345 120.98C312.819 120.98 309.272 120.117 306.705 118.39C304.185 116.617 302.925 114.027 302.925 110.62C302.925 107.54 303.929 105.183 305.935 103.55C307.942 101.87 310.789 100.867 314.475 100.54L324.275 99.56V97.95C324.275 95.85 323.599 94.3333 322.245 93.4C320.892 92.4667 319.049 92 316.715 92C314.849 92 313.029 92.2567 311.255 92.77C309.529 93.2833 307.989 93.8667 306.635 94.52C306.215 94.1467 305.842 93.7033 305.515 93.19C305.189 92.63 305.025 92.0467 305.025 91.44C305.025 89.9933 305.819 88.8967 307.405 88.15C308.712 87.5433 310.205 87.0767 311.885 86.75C313.612 86.4233 315.362 86.26 317.135 86.26C321.475 86.26 324.905 87.2167 327.425 89.13C329.992 90.9967 331.275 93.96 331.275 98.02V114.33C331.275 115.403 331.042 116.243 330.575 116.85C330.109 117.457 329.455 117.993 328.615 118.46C327.402 119.16 325.815 119.743 323.855 120.21C321.942 120.723 319.772 120.98 317.345 120.98ZM317.345 115.38C319.025 115.38 320.449 115.217 321.615 114.89C322.829 114.517 323.715 114.167 324.275 113.84V104.81L316.505 105.58C314.359 105.767 312.725 106.257 311.605 107.05C310.532 107.797 309.995 108.917 309.995 110.41C309.995 111.95 310.602 113.163 311.815 114.05C313.029 114.937 314.872 115.38 317.345 115.38ZM364.999 110.97C364.999 114.097 363.832 116.547 361.499 118.32C359.212 120.093 355.876 120.98 351.489 120.98C347.849 120.98 344.862 120.42 342.529 119.3C340.196 118.18 339.029 116.827 339.029 115.24C339.029 114.54 339.192 113.91 339.519 113.35C339.892 112.743 340.382 112.253 340.989 111.88C342.296 112.72 343.789 113.49 345.469 114.19C347.196 114.89 349.132 115.24 351.279 115.24C355.666 115.24 357.859 113.84 357.859 111.04C357.859 109.827 357.486 108.87 356.739 108.17C355.992 107.423 354.872 106.863 353.379 106.49L348.479 105.23C345.352 104.53 343.042 103.41 341.549 101.87C340.056 100.33 339.309 98.3467 339.309 95.92C339.309 93.2133 340.406 90.9267 342.599 89.06C344.839 87.1933 348.082 86.26 352.329 86.26C354.522 86.26 356.459 86.4933 358.139 86.96C359.866 87.38 361.196 87.9867 362.129 88.78C363.109 89.5733 363.599 90.46 363.599 91.44C363.599 92.14 363.436 92.77 363.109 93.33C362.782 93.89 362.362 94.31 361.849 94.59C361.289 94.2633 360.542 93.89 359.609 93.47C358.676 93.05 357.602 92.7 356.389 92.42C355.222 92.14 354.009 92 352.749 92C350.789 92 349.226 92.35 348.059 93.05C346.939 93.7033 346.379 94.66 346.379 95.92C346.379 96.8067 346.706 97.6 347.359 98.3C348.012 98.9533 349.109 99.4433 350.649 99.77L354.779 100.82C358.279 101.613 360.846 102.85 362.479 104.53C364.159 106.163 364.999 108.31 364.999 110.97ZM372.909 101.52H380.049V110.48C380.049 112.16 380.539 113.35 381.519 114.05C382.499 114.75 383.876 115.1 385.649 115.1C386.396 115.1 387.236 114.983 388.169 114.75C389.103 114.517 389.873 114.237 390.479 113.91C390.806 114.237 391.086 114.657 391.319 115.17C391.599 115.637 391.739 116.173 391.739 116.78C391.739 117.993 391.109 118.997 389.849 119.79C388.636 120.537 386.793 120.91 384.319 120.91C380.866 120.91 378.089 120.14 375.989 118.6C373.936 117.06 372.909 114.493 372.909 110.9V101.52ZM376.969 93.68V87.94H390.899C391.086 88.22 391.249 88.6167 391.389 89.13C391.576 89.6433 391.669 90.18 391.669 90.74C391.669 91.72 391.436 92.4667 390.969 92.98C390.549 93.4467 389.943 93.68 389.149 93.68H376.969ZM380.049 103.48H372.909V78.21C373.189 78.1167 373.633 78 374.239 77.86C374.846 77.72 375.499 77.65 376.199 77.65C377.506 77.65 378.463 77.9067 379.069 78.42C379.723 78.9333 380.049 79.7733 380.049 80.94V103.48ZM401.414 107.61L401.064 102.36L420.944 99.56C420.804 97.3667 420.034 95.5467 418.634 94.1C417.234 92.6067 415.251 91.86 412.684 91.86C410.071 91.86 407.901 92.7933 406.174 94.66C404.448 96.5267 403.561 99.1867 403.514 102.64L403.654 105.3C404.028 108.613 405.218 111.11 407.224 112.79C409.231 114.423 411.868 115.24 415.134 115.24C417.094 115.24 418.891 114.937 420.524 114.33C422.158 113.723 423.464 113.07 424.444 112.37C425.004 112.697 425.448 113.14 425.774 113.7C426.148 114.26 426.334 114.867 426.334 115.52C426.334 116.547 425.821 117.48 424.794 118.32C423.768 119.16 422.368 119.813 420.594 120.28C418.868 120.747 416.908 120.98 414.714 120.98C411.121 120.98 407.971 120.327 405.264 119.02C402.558 117.667 400.458 115.683 398.964 113.07C397.471 110.41 396.724 107.167 396.724 103.34C396.724 100.587 397.121 98.16 397.914 96.06C398.754 93.9133 399.898 92.1167 401.344 90.67C402.791 89.2233 404.494 88.1267 406.454 87.38C408.414 86.6333 410.514 86.26 412.754 86.26C415.694 86.26 418.284 86.89 420.524 88.15C422.811 89.3633 424.584 91.0667 425.844 93.26C427.104 95.4533 427.734 97.95 427.734 100.75C427.734 101.917 427.454 102.78 426.894 103.34C426.334 103.853 425.541 104.18 424.514 104.32L401.414 107.61Z" fill="black"/>
</svg>
